<svg width="53" height="77" viewBox="0 0 53 77" fill="none" xmlns="http://www.w3.org/2000/svg">
<path d="M9.83344 77H36.4361V71.9375C36.4361 69.6997 35.5635 67.5536 34.0103 65.9713C32.4571 64.3889 30.3504 63.5 28.1538 63.5H24.8409C24.4016 63.5 23.9803 63.3222 23.6696 63.0057C23.359 62.6893 23.1845 62.2601 23.1845 61.8125C23.1845 61.3649 23.359 60.9357 23.6696 60.6193C23.9803 60.3028 24.4016 60.125 24.8409 60.125H28.1538C31.2291 60.125 34.1783 61.3695 36.3529 63.5848C38.5274 65.8001 39.749 68.8046 39.749 71.9375V77H40.5772C42.1409 77 43.5589 76.3554 44.5859 75.3125H44.7184V75.1741C45.7101 74.1011 46.2612 72.6823 46.2589 71.2085V45.5247C51.5927 45.3088 54.783 39.281 51.9339 34.5965L50.2708 31.8628C49.6413 30.8269 48.7625 29.9719 47.7177 29.3789C46.673 28.7859 45.4969 28.4745 44.301 28.4742H39.5469V26.3278C39.5469 25.8907 39.4624 25.458 39.2983 25.0543C39.1341 24.6505 38.8935 24.2837 38.5902 23.9747C38.2869 23.6657 37.9268 23.4205 37.5305 23.2533C37.1341 23.0861 36.7094 23 36.2804 23C35.2167 23.0004 34.1635 23.2143 33.1809 23.6294C32.1983 24.0445 31.3056 24.6527 30.5538 25.4193C29.8019 26.1859 29.2056 27.0958 28.799 28.0971C28.3923 29.0985 28.1832 30.1716 28.1837 31.2552V42.9193C23.9498 43.3445 20.7528 45.383 18.4039 48.2585C16.9463 50.0405 15.8232 52.133 14.9585 54.3267C14.2065 55.8792 13.6797 57.5634 13.4213 59.3386L13.3783 59.5378C12.4639 63.527 12.1425 67.496 12.0431 70.4458C12.0034 71.708 12.0034 72.7948 12.0166 73.625H9.83344C8.56065 73.6251 7.31558 73.2463 6.25133 72.5351C5.18709 71.8238 4.35007 70.8113 3.84322 69.6219C3.33637 68.4325 3.18178 67.1181 3.39847 65.8404C3.61515 64.5627 4.19366 63.3773 5.06285 62.4301L8.11072 59.099C10.2113 56.8037 11.3556 53.7675 11.3024 50.6299C11.2493 47.4922 10.0029 44.4981 7.82581 42.278L4.83426 39.2304C4.68145 39.0692 4.49867 38.9406 4.29658 38.8522C4.09448 38.7638 3.87712 38.7172 3.65718 38.7153C3.43724 38.7133 3.21912 38.756 3.01555 38.8409C2.81197 38.9257 2.62703 39.051 2.4715 39.2095C2.31597 39.3679 2.19297 39.5563 2.10968 39.7637C2.02639 39.9711 1.98448 40.1933 1.9864 40.4174C1.98831 40.6414 2.034 40.8629 2.12082 41.0687C2.20763 41.2746 2.33382 41.4608 2.49203 41.6165L5.48359 44.6641C7.05527 46.2648 7.9552 48.4247 7.99352 50.6884C8.03185 52.9521 7.20556 55.1424 5.68899 56.7972L2.64111 60.1284C1.33489 61.5575 0.466369 63.3438 0.142032 65.2683C-0.182306 67.1928 0.0516335 69.172 0.815169 70.9631C1.5787 72.7542 2.83865 74.2794 4.44055 75.3517C6.04244 76.424 7.91666 76.9969 9.83344 77Z" fill="#8A4FFF"/>
<path d="M21.8227 20.3941L14.4665 10.147L22.9161 12.4779L24.0096 4.56166L30.7014 8.92994L34.4857 1.02374L37.3932 13.2982L21.8227 20.3941ZM38.7928 16.3693C39.0727 16.9836 38.8144 17.5958 38.1471 17.8999L24.801 23.9821C24.1337 24.2862 23.5022 24.0794 23.2223 23.4652L22.7558 22.4415L38.3262 15.3456L38.7928 16.3693Z" fill="#A77BFF"/>
</svg>
