<svg width="209" height="55" viewBox="0 0 209 55" fill="none" xmlns="http://www.w3.org/2000/svg">
<path d="M19.652 23.56C20.1507 23.8093 20.434 24.1947 20.502 24.716C20.5927 25.2373 20.468 25.7133 20.128 26.144C19.8787 26.484 19.55 26.6767 19.142 26.722C18.7567 26.7673 18.3713 26.688 17.986 26.484C17.3287 26.144 16.6373 25.872 15.912 25.668C15.1867 25.464 14.416 25.362 13.6 25.362C12.308 25.362 11.1407 25.5773 10.098 26.008C9.078 26.416 8.194 27.0167 7.446 27.81C6.698 28.5807 6.12 29.4987 5.712 30.564C5.32667 31.6293 5.134 32.808 5.134 34.1C5.134 35.528 5.34933 36.7973 5.78 37.908C6.21067 38.996 6.8 39.9253 7.548 40.696C8.31867 41.444 9.214 42.0107 10.234 42.396C11.2767 42.7587 12.3987 42.94 13.6 42.94C14.3707 42.94 15.1187 42.8493 15.844 42.668C16.592 42.4867 17.2947 42.2147 17.952 41.852C18.36 41.648 18.7567 41.58 19.142 41.648C19.55 41.6933 19.8787 41.886 20.128 42.226C20.5133 42.702 20.6493 43.1893 20.536 43.688C20.4453 44.164 20.162 44.5267 19.686 44.776C19.1193 45.0933 18.496 45.3653 17.816 45.592C17.136 45.8187 16.4447 46 15.742 46.136C15.0393 46.272 14.3253 46.34 13.6 46.34C11.968 46.34 10.4267 46.068 8.976 45.524C7.52533 44.98 6.23333 44.1867 5.1 43.144C3.96667 42.1013 3.07133 40.8207 2.414 39.302C1.77933 37.7833 1.462 36.0493 1.462 34.1C1.462 32.3547 1.75667 30.7453 2.346 29.272C2.958 27.776 3.808 26.4953 4.896 25.43C6.00667 24.342 7.29867 23.5033 8.772 22.914C10.2453 22.302 11.8547 21.996 13.6 21.996C14.688 21.996 15.742 22.132 16.762 22.404C17.8047 22.676 18.768 23.0613 19.652 23.56ZM38.6492 27.844C39.1479 27.844 39.5559 28.014 39.8732 28.354C40.1906 28.6713 40.3492 29.0793 40.3492 29.578V44.266C40.3492 44.7647 40.1906 45.184 39.8732 45.524C39.5559 45.8413 39.1479 46 38.6492 46C38.1732 46 37.7652 45.8413 37.4252 45.524C37.1079 45.184 36.9492 44.7647 36.9492 44.266V41.818L37.6632 41.92C37.6632 42.328 37.4932 42.7813 37.1532 43.28C36.8359 43.7787 36.3939 44.266 35.8272 44.742C35.2606 45.1953 34.5919 45.5807 33.8212 45.898C33.0506 46.1927 32.2232 46.34 31.3392 46.34C29.7752 46.34 28.3699 45.9433 27.1232 45.15C25.8766 44.334 24.8906 43.2233 24.1652 41.818C23.4399 40.4127 23.0772 38.8147 23.0772 37.024C23.0772 35.188 23.4399 33.5787 24.1652 32.196C24.8906 30.7907 25.8652 29.6913 27.0892 28.898C28.3359 28.1047 29.7186 27.708 31.2372 27.708C32.2119 27.708 33.1072 27.8667 33.9232 28.184C34.7619 28.5013 35.4872 28.9093 36.0992 29.408C36.7112 29.9067 37.1759 30.4393 37.4932 31.006C37.8332 31.55 38.0032 32.0713 38.0032 32.57L36.9492 32.672V29.578C36.9492 29.102 37.1079 28.694 37.4252 28.354C37.7652 28.014 38.1732 27.844 38.6492 27.844ZM31.7132 43.212C32.7786 43.212 33.7192 42.94 34.5352 42.396C35.3512 41.852 35.9859 41.1153 36.4392 40.186C36.8926 39.234 37.1192 38.18 37.1192 37.024C37.1192 35.8453 36.8926 34.7913 36.4392 33.862C35.9859 32.9327 35.3512 32.196 34.5352 31.652C33.7192 31.108 32.7786 30.836 31.7132 30.836C30.6706 30.836 29.7412 31.108 28.9252 31.652C28.1319 32.196 27.4972 32.9327 27.0212 33.862C26.5679 34.7913 26.3412 35.8453 26.3412 37.024C26.3412 38.18 26.5679 39.234 27.0212 40.186C27.4972 41.1153 28.1319 41.852 28.9252 42.396C29.7412 42.94 30.6706 43.212 31.7132 43.212ZM44.8744 28.32H52.8644C53.3178 28.32 53.6918 28.4787 53.9864 28.796C54.3038 29.0907 54.4624 29.4647 54.4624 29.918C54.4624 30.3487 54.3038 30.7113 53.9864 31.006C53.6918 31.3007 53.3178 31.448 52.8644 31.448H44.8744C44.4211 31.448 44.0358 31.3007 43.7184 31.006C43.4238 30.6887 43.2764 30.3147 43.2764 29.884C43.2764 29.4307 43.4238 29.0567 43.7184 28.762C44.0358 28.4673 44.4211 28.32 44.8744 28.32ZM48.4444 23.9C48.9431 23.9 49.3511 24.07 49.6684 24.41C49.9858 24.7273 50.1444 25.1353 50.1444 25.634V41.41C50.1444 41.818 50.2124 42.1467 50.3484 42.396C50.4844 42.6453 50.6658 42.8153 50.8924 42.906C51.1418 42.9967 51.3911 43.042 51.6404 43.042C51.8898 43.042 52.1051 42.9967 52.2864 42.906C52.4904 42.8153 52.7284 42.77 53.0004 42.77C53.2724 42.77 53.5218 42.8947 53.7484 43.144C53.9751 43.3933 54.0884 43.7333 54.0884 44.164C54.0884 44.708 53.7938 45.15 53.2044 45.49C52.6151 45.83 51.9804 46 51.3004 46C50.9151 46 50.4618 45.966 49.9404 45.898C49.4191 45.83 48.9091 45.66 48.4104 45.388C47.9344 45.116 47.5378 44.6853 47.2204 44.096C46.9031 43.484 46.7444 42.634 46.7444 41.546V25.634C46.7444 25.1353 46.9031 24.7273 47.2204 24.41C47.5604 24.07 47.9684 23.9 48.4444 23.9ZM60.3697 22.166C60.6417 22.166 60.925 22.234 61.2197 22.37C61.5143 22.506 61.741 22.6987 61.8997 22.948L70.5357 36.106L69.0737 36.038L77.8797 22.948C78.2423 22.4267 78.707 22.166 79.2737 22.166C79.727 22.166 80.1237 22.336 80.4637 22.676C80.8263 22.9933 81.0077 23.4013 81.0077 23.9V44.266C81.0077 44.7647 80.849 45.184 80.5317 45.524C80.2143 45.8413 79.795 46 79.2737 46C78.7297 46 78.2877 45.8413 77.9477 45.524C77.6303 45.184 77.4717 44.7647 77.4717 44.266V27.028L78.5597 27.266L71.0797 38.656C70.921 38.86 70.717 39.0413 70.4677 39.2C70.2183 39.336 69.9577 39.3927 69.6857 39.37C69.4363 39.3927 69.1757 39.336 68.9037 39.2C68.6543 39.0413 68.4503 38.86 68.2917 38.656L61.0837 27.436L61.8997 26.076V44.266C61.8997 44.7647 61.741 45.184 61.4237 45.524C61.129 45.8413 60.7323 46 60.2337 46C59.7577 46 59.361 45.8413 59.0437 45.524C58.749 45.184 58.6017 44.7647 58.6017 44.266V23.9C58.6017 23.424 58.7717 23.016 59.1117 22.676C59.4743 22.336 59.8937 22.166 60.3697 22.166ZM100.839 27.844C101.337 27.844 101.745 28.014 102.063 28.354C102.38 28.6713 102.539 29.0793 102.539 29.578V44.266C102.539 44.7647 102.38 45.184 102.063 45.524C101.745 45.8413 101.337 46 100.839 46C100.363 46 99.9547 45.8413 99.6147 45.524C99.2974 45.184 99.1387 44.7647 99.1387 44.266V41.818L99.8527 41.92C99.8527 42.328 99.6827 42.7813 99.3427 43.28C99.0254 43.7787 98.5834 44.266 98.0167 44.742C97.45 45.1953 96.7814 45.5807 96.0107 45.898C95.24 46.1927 94.4127 46.34 93.5287 46.34C91.9647 46.34 90.5594 45.9433 89.3127 45.15C88.066 44.334 87.08 43.2233 86.3547 41.818C85.6294 40.4127 85.2667 38.8147 85.2667 37.024C85.2667 35.188 85.6294 33.5787 86.3547 32.196C87.08 30.7907 88.0547 29.6913 89.2787 28.898C90.5254 28.1047 91.908 27.708 93.4267 27.708C94.4014 27.708 95.2967 27.8667 96.1127 28.184C96.9514 28.5013 97.6767 28.9093 98.2887 29.408C98.9007 29.9067 99.3654 30.4393 99.6827 31.006C100.023 31.55 100.193 32.0713 100.193 32.57L99.1387 32.672V29.578C99.1387 29.102 99.2974 28.694 99.6147 28.354C99.9547 28.014 100.363 27.844 100.839 27.844ZM93.9027 43.212C94.968 43.212 95.9087 42.94 96.7247 42.396C97.5407 41.852 98.1754 41.1153 98.6287 40.186C99.082 39.234 99.3087 38.18 99.3087 37.024C99.3087 35.8453 99.082 34.7913 98.6287 33.862C98.1754 32.9327 97.5407 32.196 96.7247 31.652C95.9087 31.108 94.968 30.836 93.9027 30.836C92.86 30.836 91.9307 31.108 91.1147 31.652C90.3214 32.196 89.6867 32.9327 89.2107 33.862C88.7574 34.7913 88.5307 35.8453 88.5307 37.024C88.5307 38.18 88.7574 39.234 89.2107 40.186C89.6867 41.1153 90.3214 41.852 91.1147 42.396C91.9307 42.94 92.86 43.212 93.9027 43.212ZM106.248 43.212C106.044 42.8947 105.953 42.532 105.976 42.124C105.999 41.6933 106.237 41.3307 106.69 41.036C107.007 40.832 107.336 40.7527 107.676 40.798C108.039 40.8207 108.379 40.9907 108.696 41.308C109.331 42.0107 110.033 42.566 110.804 42.974C111.597 43.382 112.549 43.586 113.66 43.586C114.113 43.5633 114.578 43.4953 115.054 43.382C115.53 43.246 115.938 43.0193 116.278 42.702C116.618 42.362 116.788 41.8747 116.788 41.24C116.788 40.6733 116.607 40.22 116.244 39.88C115.881 39.54 115.405 39.268 114.816 39.064C114.227 38.8373 113.592 38.6333 112.912 38.452C112.187 38.248 111.45 38.0213 110.702 37.772C109.977 37.5227 109.319 37.2053 108.73 36.82C108.141 36.412 107.653 35.8907 107.268 35.256C106.905 34.6213 106.724 33.8393 106.724 32.91C106.724 31.8447 107.019 30.9267 107.608 30.156C108.22 29.3853 109.002 28.7847 109.954 28.354C110.929 27.9233 111.983 27.708 113.116 27.708C113.773 27.708 114.465 27.7987 115.19 27.98C115.915 28.1387 116.618 28.3993 117.298 28.762C117.978 29.1247 118.567 29.6007 119.066 30.19C119.293 30.4847 119.417 30.836 119.44 31.244C119.485 31.652 119.304 32.0147 118.896 32.332C118.624 32.5587 118.295 32.6607 117.91 32.638C117.525 32.6153 117.207 32.4907 116.958 32.264C116.527 31.72 115.972 31.3007 115.292 31.006C114.612 30.6887 113.841 30.53 112.98 30.53C112.549 30.53 112.096 30.598 111.62 30.734C111.167 30.8473 110.781 31.0627 110.464 31.38C110.147 31.6973 109.988 32.162 109.988 32.774C109.988 33.3407 110.169 33.794 110.532 34.134C110.917 34.474 111.416 34.7573 112.028 34.984C112.64 35.2107 113.309 35.4147 114.034 35.596C114.737 35.7773 115.428 35.9927 116.108 36.242C116.811 36.4913 117.434 36.82 117.978 37.228C118.545 37.6133 118.998 38.1233 119.338 38.758C119.701 39.37 119.882 40.152 119.882 41.104C119.882 42.2147 119.553 43.1667 118.896 43.96C118.261 44.7307 117.445 45.32 116.448 45.728C115.473 46.136 114.442 46.34 113.354 46.34C112.062 46.34 110.77 46.1133 109.478 45.66C108.209 45.184 107.132 44.368 106.248 43.212ZM123.3 28.32H131.29C131.744 28.32 132.118 28.4787 132.412 28.796C132.73 29.0907 132.888 29.4647 132.888 29.918C132.888 30.3487 132.73 30.7113 132.412 31.006C132.118 31.3007 131.744 31.448 131.29 31.448H123.3C122.847 31.448 122.462 31.3007 122.144 31.006C121.85 30.6887 121.702 30.3147 121.702 29.884C121.702 29.4307 121.85 29.0567 122.144 28.762C122.462 28.4673 122.847 28.32 123.3 28.32ZM126.87 23.9C127.369 23.9 127.777 24.07 128.094 24.41C128.412 24.7273 128.57 25.1353 128.57 25.634V41.41C128.57 41.818 128.638 42.1467 128.774 42.396C128.91 42.6453 129.092 42.8153 129.318 42.906C129.568 42.9967 129.817 43.042 130.066 43.042C130.316 43.042 130.531 42.9967 130.712 42.906C130.916 42.8153 131.154 42.77 131.426 42.77C131.698 42.77 131.948 42.8947 132.174 43.144C132.401 43.3933 132.514 43.7333 132.514 44.164C132.514 44.708 132.22 45.15 131.63 45.49C131.041 45.83 130.406 46 129.726 46C129.341 46 128.888 45.966 128.366 45.898C127.845 45.83 127.335 45.66 126.836 45.388C126.36 45.116 125.964 44.6853 125.646 44.096C125.329 43.484 125.17 42.634 125.17 41.546V25.634C125.17 25.1353 125.329 24.7273 125.646 24.41C125.986 24.07 126.394 23.9 126.87 23.9ZM144.817 46.34C142.936 46.34 141.304 45.9547 139.921 45.184C138.539 44.3907 137.462 43.314 136.691 41.954C135.943 40.5713 135.569 38.996 135.569 37.228C135.569 35.2333 135.966 33.5333 136.759 32.128C137.575 30.7 138.629 29.612 139.921 28.864C141.213 28.0933 142.585 27.708 144.035 27.708C145.146 27.708 146.2 27.9347 147.197 28.388C148.195 28.8187 149.079 29.4307 149.849 30.224C150.643 30.9947 151.266 31.9127 151.719 32.978C152.173 34.0207 152.411 35.1653 152.433 36.412C152.411 36.8653 152.229 37.2393 151.889 37.534C151.549 37.8287 151.153 37.976 150.699 37.976H137.473L136.657 35.086H149.441L148.795 35.698V34.848C148.75 34.0547 148.489 33.3633 148.013 32.774C147.537 32.162 146.948 31.6973 146.245 31.38C145.543 31.04 144.806 30.87 144.035 30.87C143.355 30.87 142.698 30.9833 142.063 31.21C141.451 31.414 140.896 31.754 140.397 32.23C139.921 32.706 139.536 33.3407 139.241 34.134C138.969 34.9047 138.833 35.868 138.833 37.024C138.833 38.2707 139.094 39.3587 139.615 40.288C140.137 41.2173 140.839 41.9427 141.723 42.464C142.607 42.9627 143.582 43.212 144.647 43.212C145.486 43.212 146.177 43.1327 146.721 42.974C147.265 42.7927 147.719 42.5773 148.081 42.328C148.444 42.0787 148.761 41.8407 149.033 41.614C149.373 41.41 149.713 41.308 150.053 41.308C150.461 41.308 150.801 41.4553 151.073 41.75C151.345 42.022 151.481 42.3507 151.481 42.736C151.481 43.2347 151.232 43.688 150.733 44.096C150.121 44.6853 149.271 45.2067 148.183 45.66C147.118 46.1133 145.996 46.34 144.817 46.34ZM157.976 46C157.478 46 157.07 45.8413 156.752 45.524C156.435 45.184 156.276 44.7647 156.276 44.266V29.85C156.276 29.3513 156.435 28.9433 156.752 28.626C157.07 28.286 157.478 28.116 157.976 28.116C158.452 28.116 158.849 28.286 159.166 28.626C159.506 28.9433 159.676 29.3513 159.676 29.85V33.658L159.336 32.196C159.518 31.5613 159.79 30.972 160.152 30.428C160.538 29.884 160.991 29.408 161.512 29C162.034 28.592 162.612 28.2747 163.246 28.048C163.904 27.8213 164.584 27.708 165.286 27.708C165.876 27.708 166.386 27.8667 166.816 28.184C167.247 28.5013 167.462 28.898 167.462 29.374C167.462 29.986 167.304 30.4393 166.986 30.734C166.669 31.006 166.318 31.142 165.932 31.142C165.592 31.142 165.264 31.074 164.946 30.938C164.629 30.7793 164.255 30.7 163.824 30.7C163.348 30.7 162.861 30.8247 162.362 31.074C161.864 31.3233 161.41 31.6973 161.002 32.196C160.594 32.672 160.266 33.2387 160.016 33.896C159.79 34.5533 159.676 35.29 159.676 36.106V44.266C159.676 44.7647 159.506 45.184 159.166 45.524C158.849 45.8413 158.452 46 157.976 46Z" fill="url(#paint0_linear_103_88)"/>
<path d="M184.566 46.4905H199.624V43.4339C199.624 42.0828 199.13 40.787 198.251 39.8316C197.372 38.8763 196.179 38.3396 194.936 38.3396H193.061C192.812 38.3396 192.574 38.2322 192.398 38.0411C192.222 37.8501 192.123 37.5909 192.123 37.3207C192.123 37.0505 192.222 36.7913 192.398 36.6002C192.574 36.4092 192.812 36.3018 193.061 36.3018H194.936C196.677 36.3018 198.346 37.0532 199.577 38.3908C200.808 39.7283 201.499 41.5423 201.499 43.4339V46.4905H201.968C202.853 46.4905 203.656 46.1013 204.237 45.4716H204.312V45.3881C204.874 44.7402 205.186 43.8836 205.184 42.9937V27.4866C208.203 27.3562 210.009 23.7168 208.397 20.8884L207.455 19.2378C207.099 18.6124 206.601 18.0962 206.01 17.7381C205.419 17.3801 204.753 17.1921 204.076 17.1919H201.385V15.8959C201.385 15.6321 201.337 15.3708 201.244 15.127C201.151 14.8833 201.015 14.6618 200.844 14.4752C200.672 14.2886 200.468 14.1406 200.244 14.0397C200.019 13.9387 199.779 13.8867 199.536 13.8867C198.934 13.887 198.338 14.0161 197.782 14.2668C197.225 14.5174 196.72 14.8846 196.295 15.3474C195.869 15.8103 195.531 16.3597 195.301 16.9642C195.071 17.5688 194.953 18.2167 194.953 18.871V25.9134C192.556 26.1702 190.747 27.401 189.417 29.1371C188.592 30.2131 187.957 31.4765 187.467 32.801C187.041 33.7383 186.743 34.7552 186.597 35.827L186.573 35.9472C186.055 38.3559 185.873 40.7522 185.817 42.5332C185.794 43.2953 185.794 43.9515 185.802 44.4528H184.566C183.846 44.4528 183.141 44.2241 182.538 43.7947C181.936 43.3653 181.462 42.7539 181.175 42.0358C180.889 41.3177 180.801 40.5241 180.924 39.7526C181.046 38.9812 181.374 38.2655 181.866 37.6936L183.591 35.6823C184.78 34.2965 185.428 32.4633 185.398 30.5689C185.368 28.6745 184.662 26.8667 183.43 25.5263L181.736 23.6862C181.65 23.5889 181.546 23.5113 181.432 23.4579C181.318 23.4045 181.195 23.3764 181.07 23.3752C180.946 23.374 180.822 23.3998 180.707 23.451C180.592 23.5022 180.487 23.5779 180.399 23.6736C180.311 23.7692 180.241 23.883 180.194 24.0082C180.147 24.1334 180.123 24.2676 180.124 24.4029C180.125 24.5381 180.151 24.6718 180.2 24.7962C180.25 24.9205 180.321 25.0329 180.411 25.1269L182.104 26.9669C182.994 27.9334 183.503 29.2375 183.525 30.6042C183.546 31.971 183.079 33.2934 182.22 34.2926L180.495 36.3039C179.756 37.1667 179.264 38.2452 179.08 39.4072C178.897 40.5692 179.029 41.7641 179.461 42.8456C179.894 43.927 180.607 44.8478 181.514 45.4953C182.42 46.1427 183.481 46.4886 184.566 46.4905Z" fill="#8A4FFF"/>
<path d="M191.353 12.3134L187.189 6.12651L191.971 7.53383L192.59 2.75423L196.378 5.39168L198.52 0.618129L200.166 8.02913L191.353 12.3134ZM200.958 9.88339C201.117 10.2542 200.97 10.6239 200.593 10.8075L193.038 14.4798C192.661 14.6634 192.303 14.5385 192.145 14.1677L191.881 13.5496L200.694 9.2653L200.958 9.88339Z" fill="#A77BFF"/>
<defs>
<linearGradient id="paint0_linear_103_88" x1="57.7073" y1="33" x2="133.815" y2="96.9042" gradientUnits="userSpaceOnUse">
<stop offset="0.260417" stop-color="#A77BFF"/>
<stop offset="1" stop-color="#6F3DD1"/>
</linearGradient>
</defs>
</svg>
